<svg width="120" height="120" xmlns="http://www.w3.org/2000/svg" class="injected-svg js-svg-injector">
 <style type="text/css">.icon-16-0{fill:#BDC5D1;}
	.icon-16-1{fill:#377DFF;}
	.icon-16-2{fill:none;stroke:#FFFFFF;}
	.icon-16-3{fill:none;stroke:#BDC5D1;}
	.icon-16-4{fill:none;stroke:#377DFF;}</style>

 <g>
  <title>background</title>
  <rect fill="none" id="canvas_background" height="402" width="582" y="-1" x="-1"/>
 </g>
 <g>
  <title>Layer 1</title>
  <path id="svg_1" d="m19.3,28.1l0,0c-5.3,5.3 -8.4,12.5 -8.3,20.1c0.2,10.7 5.1,26.6 24.7,46.2c11.5,11.5 21.5,17.7 29.8,20.7c11.8,4.3 25.1,1.2 34,-7.7l0,0c1.8,-1.8 1.8,-4.8 0,-6.6l-14.3,-14.3c-1.8,-1.8 -4.7,-1.8 -6.5,-0.1l-8.6,8c0,0 -25.3,-9.2 -37.6,-37.6l7.7,-7.7c2.1,-2.1 2.1,-5.5 0,-7.6l-13.3,-13.4c-2.1,-2.1 -5.5,-2.1 -7.6,0z" opacity="0.5" class="icon-16-0 fill-gray-400"/>
  <path id="svg_2" d="m9,30.9l0,0c-5.3,5.3 -8.4,12.5 -8.3,20.1c0.2,10.7 5.1,26.6 24.7,46.2c11.5,11.5 21.5,17.7 29.8,20.7c11.8,4.3 25.1,1.2 34,-7.7l0,0c1.8,-1.8 1.8,-4.8 0,-6.6l-14.3,-14.4c-1.8,-1.8 -4.7,-1.8 -6.5,-0.1l-8.6,8c0,0 -25.3,-9.2 -37.6,-37.6l7.7,-7.7c2.1,-2.1 2.1,-5.5 0,-7.6l-13.3,-13.3c-2.1,-2.1 -5.5,-2.1 -7.6,0z" class="icon-16-1 fill-primary"/>
  <line id="svg_3" y2="46.6" x2="23.4" y1="32.2" x1="9" stroke-miterlimit="10" stroke-linejoin="round" stroke-linecap="round" stroke-width="3" class="icon-16-2 fill-none stroke-white"/>
  <line id="svg_4" y2="97.2" x2="74" y1="111.9" x1="88.7" stroke-miterlimit="10" stroke-linejoin="round" stroke-linecap="round" stroke-width="3" class="icon-16-2 fill-none stroke-white"/>
  <path id="svg_5" d="m61.3,97.1l-5.2,5.3c0,0 -8.9,-2.9 -18.7,-12.4" stroke-miterlimit="10" stroke-linejoin="round" stroke-linecap="round" stroke-width="3" class="icon-16-2 fill-none stroke-white"/>
  <path id="svg_6" d="m34.7,86.2" stroke-miterlimit="10" stroke-linejoin="round" stroke-linecap="round" stroke-width="3" class="icon-16-3 fill-none stroke-gray-400"/>
  <path id="svg_7" d="m32.5,84.9c0,0 -3.7,-3.9 -5.9,-7.7" stroke-miterlimit="10" stroke-linejoin="round" stroke-linecap="round" stroke-width="3" class="icon-16-2 fill-none stroke-white"/>
  <g id="svg_8">
   <g id="svg_9">
    <g id="svg_10">
     <path id="svg_11" d="m64.3,1.7c1.7,-0.1 3.3,-0.1 5,0" stroke-miterlimit="10" stroke-linejoin="round" stroke-linecap="round" stroke-width="3" class="icon-16-3 fill-none stroke-gray-400"/>
     <path id="svg_12" d="m80.4,3.5c5.3,1.5 10.5,3.8 15.3,6.9" stroke-dasharray="11.2267,11.2267" stroke-miterlimit="10" stroke-linejoin="round" stroke-linecap="round" stroke-width="3" class="icon-16-3 fill-none stroke-gray-400"/>
     <path id="svg_13" d="m100.2,13.8c1.3,1.1 2.5,2.2 3.7,3.4" stroke-miterlimit="10" stroke-linejoin="round" stroke-linecap="round" stroke-width="3" class="icon-16-3 fill-none stroke-gray-400"/>
    </g>
   </g>
  </g>
  <path id="svg_14" d="m103.9,17.1c19.2,19.2 19.2,50.4 0,69.7" stroke-miterlimit="10" stroke-linejoin="round" stroke-linecap="round" stroke-width="3" class="icon-16-3 fill-none stroke-gray-400"/>
  <path id="svg_15" d="m28.9,17.1c9.8,-9.8 22.5,-15 35.4,-15.5" stroke-miterlimit="10" stroke-linejoin="round" stroke-linecap="round" stroke-width="3" class="icon-16-3 fill-none stroke-gray-400"/>
  <line id="svg_16" y2="69.2" x2="93.7" y1="71.1" x1="97.5" stroke-miterlimit="10" stroke-linejoin="round" stroke-linecap="round" stroke-width="3" class="icon-16-3 fill-none stroke-gray-400"/>
  <line id="svg_17" y2="50.1" x2="97.4" y1="49.1" x1="101.5" stroke-miterlimit="10" stroke-linejoin="round" stroke-linecap="round" stroke-width="3" class="icon-16-3 fill-none stroke-gray-400"/>
  <line id="svg_18" y2="28.5" x2="51.1" y1="23.1" x1="49.4" stroke-miterlimit="10" stroke-linejoin="round" stroke-linecap="round" stroke-width="3" class="icon-16-3 fill-none stroke-gray-400"/>
  <line id="svg_19" y2="23.1" x2="70.4" y1="19" x1="71.4" stroke-miterlimit="10" stroke-linejoin="round" stroke-linecap="round" stroke-width="3" class="icon-16-3 fill-none stroke-gray-400"/>
  <line id="svg_20" y2="33.8" x2="87.3" y1="29.2" x1="91.9" stroke-miterlimit="10" stroke-linejoin="round" stroke-linecap="round" stroke-width="3" class="icon-16-3 fill-none stroke-gray-400"/>
  <path id="svg_21" d="m41.2,29.2c14,-14 36.6,-14 50.6,0c14,14 14,36.6 0,50.6" stroke-miterlimit="10" stroke-linejoin="round" stroke-linecap="round" stroke-width="3" class="icon-16-4 fill-none stroke-primary"/>
  <line id="svg_22" y2="66.9" x2="62.9" y1="66.9" x1="53.7" stroke-miterlimit="10" stroke-linejoin="round" stroke-linecap="round" stroke-width="3" class="icon-16-3 fill-none stroke-gray-400"/>
  <line id="svg_23" y2="54.1" x2="60.7" y1="54.1" x1="55.4" stroke-miterlimit="10" stroke-linejoin="round" stroke-linecap="round" stroke-width="3" class="icon-16-3 fill-none stroke-gray-400"/>
  <line id="svg_24" y2="54.1" x2="77.7" y1="54.1" x1="72.4" stroke-miterlimit="10" stroke-linejoin="round" stroke-linecap="round" stroke-width="3" class="icon-16-3 fill-none stroke-gray-400"/>
  <line id="svg_25" y2="41.1" x2="62.9" y1="41.1" x1="53.7" stroke-miterlimit="10" stroke-linejoin="round" stroke-linecap="round" stroke-width="3" class="icon-16-3 fill-none stroke-gray-400"/>
  <line id="svg_26" y2="63.7" x2="53.7" y1="57.2" x1="53.7" stroke-miterlimit="10" stroke-linejoin="round" stroke-linecap="round" stroke-width="3" class="icon-16-3 fill-none stroke-gray-400"/>
  <line id="svg_27" y2="66.3" x2="80.3" y1="55.5" x1="80.3" stroke-miterlimit="10" stroke-linejoin="round" stroke-linecap="round" stroke-width="3" class="icon-16-3 fill-none stroke-gray-400"/>
  <line id="svg_28" y2="51.8" x2="80.3" y1="41.1" x1="80.3" stroke-miterlimit="10" stroke-linejoin="round" stroke-linecap="round" stroke-width="3" class="icon-16-3 fill-none stroke-gray-400"/>
  <line id="svg_29" y2="51.8" x2="69.6" y1="41.1" x1="69.6" stroke-miterlimit="10" stroke-linejoin="round" stroke-linecap="round" stroke-width="3" class="icon-16-3 fill-none stroke-gray-400"/>
  <line id="svg_30" y2="51.5" x2="62.9" y1="44.8" x1="62.9" stroke-miterlimit="10" stroke-linejoin="round" stroke-linecap="round" stroke-width="3" class="icon-16-3 fill-none stroke-gray-400"/>
  <path id="svg_31" d="m107.9,38.6c0,0 5.5,11.5 0.8,25.9" stroke-miterlimit="10" stroke-linejoin="round" stroke-linecap="round" stroke-width="3" class="icon-16-3 fill-none stroke-gray-400"/>
  <path id="svg_32" d="m42.1,17.4c0,0 3.4,-2.6 7.3,-3.6" stroke-miterlimit="10" stroke-linejoin="round" stroke-linecap="round" stroke-width="3" class="icon-16-3 fill-none stroke-gray-400"/>
  <line id="svg_33" y2="26.5" x2="100.8" y1="31.8" x1="104.2" stroke-miterlimit="10" stroke-linejoin="round" stroke-linecap="round" stroke-width="3" class="icon-16-3 fill-none stroke-gray-400"/>
 </g>
</svg>